<svg width="100" height="100" viewBox="0 0 100 100" fill="none" xmlns="http://www.w3.org/2000/svg">
<circle cx="50" cy="50" r="50" fill="#F76400"/>
<path d="M71.1191 45.7498C71.1191 43.9853 70.3227 42.3317 68.9658 41.231C69.0248 40.9493 69.0541 40.6786 69.0541 40.4122C69.0541 38.2142 67.4288 36.3888 65.3173 36.0744C65.3658 35.8219 65.3888 35.5742 65.3888 35.3275C65.3888 32.9875 63.5446 31.0757 61.2344 30.9542C61.1965 30.948 61.1581 30.9427 61.1182 30.9427C61.099 30.9427 61.0803 30.9451 61.0606 30.9456C61.0414 30.9451 61.0227 30.9427 61.003 30.9427C60.7832 30.9427 60.5619 30.9624 60.3282 31.0032C59.9221 28.8504 58.0467 27.2472 55.7984 27.2472C53.2491 27.2472 51.175 29.3213 51.175 31.871V63.5117C51.175 66.7387 53.8002 69.3634 57.0267 69.3634C59.1675 69.3634 61.1106 68.2051 62.1368 66.3653C62.3667 66.4152 62.5875 66.4459 62.8093 66.4603C64.2027 66.5491 65.5597 66.0926 66.6138 65.1677C67.6678 64.2427 68.2986 62.9626 68.3898 61.5629C68.4277 60.9797 68.3624 60.3946 68.1963 59.8166C70.0184 58.525 71.0893 56.4797 71.0893 54.2386C71.0893 52.6138 70.5042 51.0538 69.4357 49.811C70.5109 48.7224 71.1191 47.2661 71.1191 45.7498ZM69.6503 54.2395C69.6503 55.9118 68.8909 57.4459 67.5886 58.4726C66.6248 56.9386 64.9151 55.9589 63.0637 55.9589C62.6663 55.9589 62.3437 56.2814 62.3437 56.6789C62.3437 57.0763 62.6663 57.3989 63.0637 57.3989C64.6674 57.3989 66.128 58.4035 66.703 59.8987C66.8998 60.421 66.9872 60.9494 66.9531 61.4702C66.8869 62.4859 66.4295 63.4147 65.6643 64.0858C64.8992 64.7573 63.9167 65.0909 62.9034 65.0237C62.6183 65.005 62.3235 64.9435 61.9755 64.8307C61.6203 64.7146 61.2358 64.8902 61.0894 65.2339C60.3958 66.8678 58.8008 67.9238 57.0262 67.9238C54.5936 67.9238 52.6146 65.9448 52.6146 63.5122V31.8715C52.6146 30.1162 54.0426 28.6877 55.7979 28.6877C57.429 28.6877 58.771 29.9174 58.9458 31.5235C57.6253 32.28 56.732 33.7003 56.732 35.328C56.732 35.7259 57.0546 36.048 57.452 36.048C57.8494 36.048 58.172 35.7259 58.172 35.328C58.172 33.7234 59.4627 32.4168 61.0597 32.3856C62.6566 32.4168 63.9474 33.7234 63.9474 35.3275C63.9474 35.6261 63.8912 35.9352 63.775 36.2736C63.7477 36.3533 63.7347 36.4368 63.7362 36.5208C63.7366 36.5405 63.7376 36.5587 63.7395 36.576C63.7366 36.5861 63.7347 36.5928 63.7347 36.5928C63.6781 36.816 63.7318 37.0531 63.8792 37.2302C64.0266 37.4074 64.2464 37.5034 64.4797 37.4885C64.5296 37.4851 64.5795 37.4789 64.6678 37.4664C66.2917 37.4664 67.6131 38.7878 67.6131 40.4117C67.6131 40.6862 67.5637 40.968 67.4586 41.2992C67.3611 41.604 67.4768 41.9366 67.7422 42.1152C68.9106 42.9019 69.6186 44.1931 69.669 45.5914C69.669 45.5933 69.6685 45.5952 69.6685 45.5971C69.6685 48.0115 67.7043 49.9762 65.2899 49.9762C62.8755 49.9762 60.9109 48.0115 60.9109 45.5971C60.9109 45.1992 60.5883 44.8771 60.1909 44.8771C59.7935 44.8771 59.4709 45.1992 59.4709 45.5971C59.4709 48.8059 62.0811 51.4162 65.2899 51.4162C66.3594 51.4162 67.3587 51.121 68.2208 50.6155C69.1424 51.6187 69.6503 52.9018 69.6503 54.2395Z" fill="white"/>
<path d="M44.3259 27.2482C42.0776 27.2482 40.2027 28.8514 39.7971 31.0042C39.5629 30.9634 39.3416 30.9437 39.1218 30.9437C39.1026 30.9437 39.0838 30.9461 39.0642 30.9466C39.045 30.9461 39.0262 30.9437 39.0066 30.9437C38.9667 30.9437 38.9283 30.949 38.8904 30.9552C36.5802 31.0766 34.7365 32.9885 34.7365 35.3285C34.7365 35.5752 34.76 35.8229 34.808 36.0754C32.6965 36.3898 31.0712 38.2152 31.0712 40.4131C31.0712 40.6791 31.1005 40.9498 31.1595 41.232C29.8026 42.3326 29.0062 43.9862 29.0062 45.7507C29.0062 47.267 29.6139 48.7234 30.6886 49.813C29.6197 51.0557 29.0346 52.6157 29.0346 54.2405C29.0346 56.4816 30.1054 58.5264 31.9275 59.8186C31.761 60.3965 31.6962 60.9816 31.7346 61.5653C31.8258 62.9645 32.456 64.2446 33.5101 65.1696C34.5642 66.0951 35.9173 66.5515 37.3146 66.4622C37.533 66.4478 37.7557 66.4162 37.9866 66.3667C39.0128 68.2071 40.9558 69.3653 43.0966 69.3653C46.3232 69.3653 48.9483 66.7402 48.9483 63.5136V31.872C48.9493 29.3222 46.8752 27.2482 44.3259 27.2482ZM47.5093 63.5127C47.5093 65.9453 45.5302 67.9243 43.0976 67.9243C41.323 67.9243 39.728 66.8683 39.0349 65.2344C38.9192 64.9622 38.6542 64.7957 38.372 64.7957C38.2981 64.7957 38.2227 64.8067 38.1488 64.8312C37.8013 64.944 37.5066 65.0055 37.221 65.0242C36.2038 65.0909 35.2251 64.7573 34.4605 64.0863C33.6954 63.4152 33.2379 62.4864 33.1717 61.4707C33.1352 60.9139 33.2317 60.3495 33.4587 59.7931C33.4621 59.785 33.4611 59.7759 33.464 59.7677C34.1082 58.3008 35.492 57.3902 37.1106 57.3902C37.5085 57.3902 37.8306 57.0677 37.8306 56.6702C37.8306 56.2728 37.5085 55.9502 37.1106 55.9502C35.2203 55.9502 33.5101 56.9136 32.5275 58.465C31.231 57.4383 30.4746 55.908 30.4746 54.24C30.4746 52.9023 30.9834 51.6192 31.904 50.6165C32.7661 51.1219 33.7659 51.4171 34.8354 51.4171C38.0442 51.4171 40.6544 48.8069 40.6544 45.5981C40.6544 45.2002 40.3323 44.8781 39.9344 44.8781C39.5365 44.8781 39.2144 45.2002 39.2144 45.5981C39.2144 48.0125 37.2502 49.9771 34.8354 49.9771C32.4205 49.9771 30.4563 48.0125 30.4563 45.5981C30.4563 45.5971 30.4558 45.5962 30.4558 45.5952C30.5053 44.196 31.2133 42.9039 32.3821 42.1162C32.6475 41.9376 32.7627 41.6054 32.6658 41.3006C32.5602 40.969 32.5112 40.6872 32.5112 40.4127C32.5112 38.7922 33.8269 37.4726 35.4848 37.4726C35.4882 37.4726 35.492 37.4726 35.4954 37.4726C35.5448 37.4794 35.5942 37.4856 35.6446 37.489C35.8774 37.5034 36.0997 37.4069 36.2466 37.2288C36.3939 37.0502 36.4467 36.8122 36.3877 36.5885C36.3877 36.588 36.3862 36.5818 36.3838 36.5736C36.3853 36.5568 36.3867 36.5414 36.3872 36.528C36.3896 36.4416 36.3766 36.3557 36.3483 36.2741C36.2322 35.9347 36.176 35.6251 36.176 35.3275C36.176 33.7234 37.4662 32.4163 39.0637 32.3856C40.6611 32.4168 41.9514 33.7234 41.9514 35.328C41.9514 35.7259 42.2734 36.048 42.6714 36.048C43.0693 36.048 43.3914 35.7259 43.3914 35.328C43.3914 33.7003 42.4981 32.28 41.1776 31.5235C41.3523 29.9174 42.6944 28.6877 44.3254 28.6877C46.0808 28.6877 47.5088 30.1162 47.5088 31.8715V63.5127H47.5093Z" fill="white"/>
</svg>
