<svg width="108" height="108" viewBox="0 0 108 108" fill="none" xmlns="http://www.w3.org/2000/svg">
<g filter="url(#filter0_d)">
<circle cx="54" cy="50" r="50" fill="#F76400"/>
<path d="M35.5 59.5698L35.5 59.5704C35.5028 61.9396 36.4459 64.2108 38.1222 65.8851C39.7985 67.5594 42.0708 68.4998 44.44 68.4998C44.8378 68.4998 45.2194 68.6579 45.5007 68.9392C45.782 69.2205 45.94 69.602 45.94 69.9998C45.94 70.3976 45.782 70.7792 45.5007 71.0605C45.2195 71.3417 44.8381 71.4997 44.4404 71.4998C41.2761 71.4973 38.2419 70.2398 36.0035 68.0031C33.7651 65.7666 32.5052 62.7336 32.5 59.5695C32.5001 59.1718 32.6581 58.7904 32.9393 58.5092C33.2206 58.2279 33.6022 58.0698 34 58.0698C34.3978 58.0698 34.7794 58.2279 35.0607 58.5092C35.342 58.7905 35.5 59.172 35.5 59.5698Z" fill="white" stroke="#F76400"/>
<path d="M63.5701 68.4998H63.5707C65.938 68.497 68.2076 67.5553 69.8816 65.8814C71.5556 64.2074 72.4973 61.9378 72.5001 59.5704V59.5698C72.5001 59.172 72.6581 58.7905 72.9394 58.5092C73.2207 58.2279 73.6022 58.0698 74.0001 58.0698C74.3979 58.0698 74.7794 58.2279 75.0607 58.5092C75.342 58.7904 75.5 59.1719 75.5001 59.5696C75.4948 62.7321 74.2362 65.7635 72 67.9998C69.7638 70.236 66.7323 71.4946 63.5699 71.4998C63.1721 71.4998 62.7907 71.3417 62.5094 71.0605C62.2281 70.7792 62.0701 70.3977 62.0701 69.9998C62.0701 69.602 62.2281 69.2205 62.5094 68.9392C62.7907 68.6579 63.1722 68.4998 63.5701 68.4998Z" fill="white" stroke="#F76400"/>
<path d="M72.5001 40.43V40.4294C72.4973 38.062 71.5556 35.7924 69.8816 34.1185C68.2076 32.4445 65.938 31.5028 63.5707 31.5H63.5701C63.1722 31.5 62.7907 31.342 62.5094 31.0607C62.2281 30.7794 62.0701 30.3978 62.0701 30C62.0701 29.6022 62.2281 29.2206 62.5094 28.9393C62.7906 28.6581 63.172 28.5001 63.5697 28.5C66.7322 28.5052 69.7638 29.7638 72 32.0001C74.2362 34.2363 75.4948 37.2677 75.5001 40.4302C75.5 40.828 75.342 41.2094 75.0607 41.4907C74.7794 41.772 74.3979 41.93 74.0001 41.93C73.6022 41.93 73.2207 41.772 72.9394 41.4907C72.6581 41.2094 72.5001 40.8278 72.5001 40.43Z" fill="white" stroke="#F76400"/>
<path d="M34.0025 41.93H34C33.6022 41.93 33.2206 41.772 32.9393 41.4907C32.6581 41.2094 32.5001 40.8281 32.5 40.4304C32.5052 37.2662 33.7651 34.2332 36.0035 31.9967C38.2418 29.7601 41.2759 28.5026 44.4402 28.5C44.838 28.5001 45.2194 28.6581 45.5007 28.9393C45.782 29.2206 45.94 29.6022 45.94 30C45.94 30.3978 45.782 30.7794 45.5007 31.0607C45.2194 31.342 44.8378 31.5 44.44 31.5L44.4394 31.5C42.072 31.5028 39.8024 32.4445 38.1285 34.1185C36.4545 35.7924 35.5128 38.062 35.51 40.4294V40.43C35.51 40.6276 35.471 40.8233 35.3951 41.0058C35.3193 41.1882 35.2081 41.3539 35.068 41.4933C34.9279 41.6327 34.7617 41.743 34.5788 41.818C34.396 41.8929 34.2001 41.931 34.0025 41.93Z" fill="white" stroke="#F76400"/>
<path d="M60.34 55.98H47.8C46.2087 55.98 44.6826 55.3478 43.5574 54.2226C42.4322 53.0974 41.8 51.5713 41.8 49.98C41.8 48.3887 42.4322 46.8626 43.5574 45.7373C44.6826 44.6121 46.2087 43.98 47.8 43.98H60.34C61.9313 43.98 63.4575 44.6121 64.5827 45.7373C65.7079 46.8626 66.34 48.3887 66.34 49.98C66.34 51.5713 65.7079 53.0974 64.5827 54.2226C63.4575 55.3478 61.9313 55.98 60.34 55.98ZM47.8 46.98C47.0044 46.98 46.2413 47.2961 45.6787 47.8587C45.1161 48.4213 44.8 49.1843 44.8 49.98C44.8 50.7756 45.1161 51.5387 45.6787 52.1013C46.2413 52.6639 47.0044 52.98 47.8 52.98H60.34C61.1357 52.98 61.8988 52.6639 62.4614 52.1013C63.024 51.5387 63.34 50.7756 63.34 49.98C63.34 49.1843 63.024 48.4213 62.4614 47.8587C61.8988 47.2961 61.1357 46.98 60.34 46.98H47.8Z" fill="white" stroke="#F76400"/>
</g>
<defs>
<filter id="filter0_d" x="0" y="0" width="108" height="108" filterUnits="userSpaceOnUse" color-interpolation-filters="sRGB">
<feFlood flood-opacity="0" result="BackgroundImageFix"/>
<feColorMatrix in="SourceAlpha" type="matrix" values="0 0 0 0 0 0 0 0 0 0 0 0 0 0 0 0 0 0 127 0"/>
<feOffset dy="4"/>
<feGaussianBlur stdDeviation="2"/>
<feColorMatrix type="matrix" values="0 0 0 0 0 0 0 0 0 0 0 0 0 0 0 0 0 0 0.25 0"/>
<feBlend mode="normal" in2="BackgroundImageFix" result="effect1_dropShadow"/>
<feBlend mode="normal" in="SourceGraphic" in2="effect1_dropShadow" result="shape"/>
</filter>
</defs>
</svg>
