<svg width="46" height="46" viewBox="0 0 46 46" fill="none" xmlns="http://www.w3.org/2000/svg">
<path d="M37 37.5H9V9.5H37V37.5ZM11 35.5H35V11.5H11V35.5Z" fill="#F76400"/>
<path d="M33 33.5H13V13.5H33V33.5ZM15 31.5H31V15.5H15V31.5Z" fill="#F76400"/>
<path d="M46 9.5H39V11.5H46V9.5Z" fill="#F76400"/>
<path d="M46 14.5H39V16.5H46V14.5Z" fill="#F76400"/>
<path d="M46 19.5H39V21.5H46V19.5Z" fill="#F76400"/>
<path d="M46 24.5H39V26.5H46V24.5Z" fill="#F76400"/>
<path d="M46 29.5H39V31.5H46V29.5Z" fill="#F76400"/>
<path d="M46 34.5H39V36.5H46V34.5Z" fill="#F76400"/>
<path d="M7 9.5H0V11.5H7V9.5Z" fill="#F76400"/>
<path d="M7 14.5H0V16.5H7V14.5Z" fill="#F76400"/>
<path d="M7 19.5H0V21.5H7V19.5Z" fill="#F76400"/>
<path d="M7 24.5H0V26.5H7V24.5Z" fill="#F76400"/>
<path d="M7 29.5H0V31.5H7V29.5Z" fill="#F76400"/>
<path d="M7 34.5H0V36.5H7V34.5Z" fill="#F76400"/>
<path d="M36.5 0H34.5V7H36.5V0Z" fill="#F76400"/>
<path d="M31.5 0H29.5V7H31.5V0Z" fill="#F76400"/>
<path d="M26.5 0H24.5V7H26.5V0Z" fill="#F76400"/>
<path d="M21.5 0H19.5V7H21.5V0Z" fill="#F76400"/>
<path d="M16.5 0H14.5V7H16.5V0Z" fill="#F76400"/>
<path d="M11.5 0H9.5V7H11.5V0Z" fill="#F76400"/>
<path d="M36.5 39H34.5V46H36.5V39Z" fill="#F76400"/>
<path d="M31.5 39H29.5V46H31.5V39Z" fill="#F76400"/>
<path d="M26.5 39H24.5V46H26.5V39Z" fill="#F76400"/>
<path d="M21.5 39H19.5V46H21.5V39Z" fill="#F76400"/>
<path d="M16.5 39H14.5V46H16.5V39Z" fill="#F76400"/>
<path d="M11.5 39H9.5V46H11.5V39Z" fill="#F76400"/>
</svg>
